<?xml version="1.0" standalone="no"?>
<!DOCTYPE svg PUBLIC "-//W3C//DTD SVG 1.1//EN" "http://www.w3.org/Graphics/SVG/1.1/DTD/svg11.dtd" >
<svg xmlns="http://www.w3.org/2000/svg" xmlns:xlink="http://www.w3.org/1999/xlink" version="1.1">
<metadata>
Created by FontForge 20150107 at Tue Mar  1 11:40:56 2016
 By Dm
</metadata>
<defs>
<font id="followback" horiz-adv-x="1792" >
  <font-face 
    font-family="followback"
    font-weight="400"
    font-stretch="normal"
    units-per-em="1792"
    panose-1="0 0 0 0 0 0 0 0 0 0"
    ascent="1536"
    descent="-256"
    bbox="-543.282 -345 2337.8 1624.88"
    underline-thickness="0"
    underline-position="0"
    unicode-range="U+0020-F500"
  />
<missing-glyph horiz-adv-x="896" 
d="M224 112h448v1312h-448v-1312zM112 0v1536h672v-1536h-672z" />
    <glyph glyph-name=".notdef" horiz-adv-x="896" 
d="M224 112h448v1312h-448v-1312zM112 0v1536h672v-1536h-672z" />
    <glyph glyph-name=".null" horiz-adv-x="0" 
 />
    <glyph glyph-name="nonmarkingreturn" horiz-adv-x="597" 
 />
    <glyph glyph-name="space" unicode=" " horiz-adv-x="448" 
 />
    <glyph glyph-name="slash" unicode="/" 
d="M896 -256q-182 0 -348 71t-286 191t-191 286t-71 348t71 348t191 286t286 191t348 71t348 -71t286 -191t191 -286t71 -348t-71 -348t-191 -286t-286 -191t-348 -71zM371 578q0 -56 62 -92v185q-62 -37 -62 -93zM507 711q-7 3 -13 6v-231h62v308q-38 -37 -49 -83zM618 834
v-348h62v370q-33 -8 -62 -22zM785 829q-21 14 -43 20v-363h61v370q-10 -12 -18 -27zM865 864v-378h379q38 3 64.5 20.5t38.5 43.5t12 60q0 52 -32 88t-81 36q-22 0 -44 -10q-8 82 -66 138t-136 56q-77 0 -135 -54z" />
    <glyph glyph-name="uni00A0" unicode="&#xa0;" horiz-adv-x="448" 
 />
    <glyph glyph-name="dieresis" unicode="&#xa8;" 
 />
    <glyph glyph-name="copyright" unicode="&#xa9;" 
 />
    <glyph glyph-name="registered" unicode="&#xae;" 
 />
    <glyph glyph-name="acute" unicode="&#xb4;" 
 />
    <glyph glyph-name="AE" unicode="&#xc6;" 
 />
    <glyph glyph-name="Oslash" unicode="&#xd8;" 
 />
    <glyph glyph-name="uni2000" unicode="&#x2000;" horiz-adv-x="768" 
 />
    <glyph glyph-name="uni2001" unicode="&#x2001;" horiz-adv-x="1537" 
 />
    <glyph glyph-name="uni2002" unicode="&#x2002;" horiz-adv-x="768" 
 />
    <glyph glyph-name="uni2003" unicode="&#x2003;" horiz-adv-x="1537" 
 />
    <glyph glyph-name="uni2004" unicode="&#x2004;" horiz-adv-x="512" 
 />
    <glyph glyph-name="uni2005" unicode="&#x2005;" horiz-adv-x="384" 
 />
    <glyph glyph-name="uni2006" unicode="&#x2006;" horiz-adv-x="256" 
 />
    <glyph glyph-name="uni2007" unicode="&#x2007;" horiz-adv-x="256" 
 />
    <glyph glyph-name="uni2008" unicode="&#x2008;" horiz-adv-x="192" 
 />
    <glyph glyph-name="uni2009" unicode="&#x2009;" horiz-adv-x="307" 
 />
    <glyph glyph-name="uni200A" unicode="&#x200a;" horiz-adv-x="85" 
 />
    <glyph glyph-name="uni202F" unicode="&#x202f;" horiz-adv-x="307" 
 />
    <glyph glyph-name="uni205F" unicode="&#x205f;" horiz-adv-x="384" 
 />
    <glyph glyph-name="trademark" unicode="&#x2122;" 
 />
    <glyph glyph-name="infinity" unicode="&#x221e;" 
 />
    <glyph glyph-name="notequal" unicode="&#x2260;" 
 />
    <glyph glyph-name="uni25FC" unicode="&#x25fc;" horiz-adv-x="500" 
d="M0 0z" />
    <glyph glyph-name="glass" unicode="&#xf000;" 
d="M575.977 5.12695q-131.57 72.9775 -226.98 128.423t-97.8076 60.3193q-5.81152 11.8154 -24.791 186.671q-25.7598 237.307 -70.8252 620.733q-17.4785 148.687 -19.3535 169.617q-1.2041 13.4141 6.34277 19.9629q7.5459 6.54785 35.4844 16.3301
q44.2979 15.5127 292.884 104.426q249.04 89.0752 338.162 119.455l88.9951 30.3369l216.999 -74.1006q220.028 -75.1328 389.854 -132.847l172.852 -58.7461l-4.71973 -27.2754q-4.71777 -27.2979 -61.4121 -481.898q-56.6875 -454.59 -61.3125 -476.769
q-2.91797 -13.9941 -53.9951 -45.792q-51.0762 -31.7988 -223.555 -126.998q-270.531 -149.317 -325.389 -179.71l-52.4561 -29.0684zM645.791 337.354l48.0762 118.556l211.863 1.65527l211.86 1.6582l50.8682 -118.025l50.8652 -118.028l84.7969 -2.50195
q84.7939 -2.50391 84.7939 3.41016t-240.425 521.18q-240.425 515.271 -240.425 523.342t-13.1133 8.07129q-13.1162 0 -13.1162 -7.61426q0 -10.6953 -333.24 -748.046q-130.122 -287.928 -130.122 -295.069q0 -7.14258 89.6191 -7.14258h89.6221zM762.952 616.594
q120.717 297.626 131.191 308.101q1.93457 1.93457 40.2998 -74.0869q38.3643 -76.0215 75.9346 -155.251q37.5713 -79.2305 37.5713 -85.1201q0 -8.21777 -144.272 -5.30273q-144.269 2.91602 -140.725 11.6602z" />
    <glyph glyph-name="music" unicode="&#xf001;" horiz-adv-x="1790" 
d="M886 -237q-36 0 -68 16l-216 128q-36 20 -8 28q52 20 99 47q9 3 17 -3l167 -96q12 -9 21 0l651 375q12 3 12 15v756q0 12 -12 15l-651 376q-12 9 -21 0l-651 -376q-12 -3 -12 -15v-756q0 -12 12 -15l180 -103q72 -32 114 -8.5t42 71.5v743q0 20 16 20h83q20 0 21 -20
v-743q0 -96 -50 -148t-142 -52q-68 0 -151 41l-173 96q-68 40 -67 118v756q0 76 67 116l652 379q72 36 139 0l652 -379q68 -40 67 -116v-756q0 -80 -67 -118l-652 -376q-32 -15 -68 -16h-3zM1089 279q-348 0 -347 243q0 15 21 15h83q15 0 19 -15q12 -68 56 -98.5t168 -30.5
q196 0 196 105q0 24 -12 37.5t-64.5 29.5t-155.5 28q-147 12 -217 54t-70 146q0 96 78 152.5t217 56.5q307 0 328 -228q0 -9 -6.5 -15t-13.5 -6h-84q-15 0 -21 15q-15 68 -58.5 92.5t-144.5 24.5q-168 0 -169 -87q0 -40 38.5 -56.5t186.5 -32.5q163 -24 229 -65.5t66 -142.5
q0 -104 -83 -163t-240 -59v0z" />
    <glyph glyph-name="search" unicode="&#xf002;" horiz-adv-x="1790" 
d="M900 1609q0 -106 -1.5 -379.5t-5.5 -424t-12.5 -345t-27 -299.5t-47.5 -134q-33 11 -74.5 43.5t-103.5 103.5t-101.5 203.5t-39.5 298.5q0 182 60 339.5t132.5 245t141 183.5t79.5 165zM915 1490q11 -33 72.5 -125.5t119.5 -185.5t107 -232.5t49 -270.5q0 -439 -312 -664
v-177q0 -22 -14.5 -36.5t-27 -14.5t-29 12.5t-16.5 27.5v178q36 14 56 134t20 310.5t-3.5 364.5t-12.5 388.5t-9 290.5z" />
    <glyph glyph-name="envelope" unicode="&#xf003;" horiz-adv-x="1790" 
d="M524 184q-8 -9 -20 3q-13 11 -4 19q8 9 20 -3q12 -11 4 -19zM482 245q9 -12 0 -19q-8 -6 -17 7t0 18q9 7 17 -6zM421 305q-5 -7 -13 -2q-10 5 -7 12q3 5 13 2q10 -5 7 -12zM452 271q-6 -7 -16 3q-9 11 -2 16q6 6 16 -3q9 -11 2 -16zM581 159q-4 -12 -19 -6q-17 4 -13 15
t19 7q16 -5 13 -16zM644 154q0 -11 -16 -11q-17 -2 -17 11q0 11 16 11q17 2 17 -11zM702 164q2 -10 -14 -14t-18 8t14 15q16 2 18 -9zM1666 1120v-960q0 -119 -84.5 -203.5t-203.5 -84.5h-224q-16 0 -24.5 1t-19.5 5t-16 14.5t-5 27.5v239q0 97 -52 142q57 6 102.5 18t94 39
t81 66.5t53 105t20.5 150.5q0 121 -79 206q37 91 -8 204q-28 9 -81 -11t-92 -44l-38 -24q-93 26 -192 26t-192 -26q-16 11 -42.5 27t-83.5 38.5t-86 13.5q-44 -113 -7 -204q-79 -85 -79 -206q0 -85 20.5 -150t52.5 -105t80.5 -67t94 -39t102.5 -18q-40 -36 -49 -103
q-21 -10 -45 -15t-57 -5t-65.5 21.5t-55.5 62.5q-19 32 -48.5 52t-49.5 24l-20 3q-21 0 -29 -4.5t-5 -11.5t9 -14t13 -12l7 -5q22 -10 43.5 -38t31.5 -51l10 -23q13 -38 44 -61.5t67 -30t69.5 -7t55.5 3.5l23 4q0 -38 0.5 -103t0.5 -68q0 -22 -11 -33.5t-22 -13t-33 -1.5
h-224q-119 0 -203.5 84.5t-84.5 203.5v960q0 119 84.5 203.5t203.5 84.5h960q119 0 203.5 -84.5t84.5 -203.5z" />
    <glyph glyph-name="heart" unicode="&#xf004;" horiz-adv-x="1790" 
d="M396 28h12q54 0 91.5 37.5t37.5 88.5v3v663l753 -753q36 -39 88.5 -39t90 37.5t37.5 91.5v972q0 54 -37.5 91.5t-90 37.5t-90 -37.5t-37.5 -91.5v-666l-753 753q-36 36 -88.5 36t-90 -36t-37.5 -87v-972v-3q0 -45 33 -82.5t81 -43.5z" />
    <glyph glyph-name="star" unicode="&#xf005;" 
d="M702 228q0 -66 -93 -66q-107 0 -107 63q0 64 98 64q102 0 102 -61zM666 694q0 -85 -74 -85q-77 0 -77 84q0 90 77 90q36 0 55 -25.5t19 -63.5zM832 769v125q-78 -29 -135 -29q-50 29 -110 29q-86 0 -145 -57t-59 -143q0 -50 29.5 -102t73.5 -67v-3q-38 -17 -38 -85
q0 -53 41 -77v-3q-113 -37 -113 -139q0 -45 20 -78.5t54 -51t72 -25.5t81 -8q224 0 224 188q0 67 -48 99t-126 46q-27 5 -51.5 20.5t-24.5 39.5q0 44 49 52q77 15 122 70t45 134q0 24 -10 52q37 9 49 13zM891 350h137q-2 27 -2 82v387q0 46 2 69h-137q3 -23 3 -71v-392
q0 -50 -3 -75zM1400 366v121q-30 -21 -68 -21q-53 0 -53 82v225h52q9 0 26.5 -1t26.5 -1v117h-105q0 82 3 102h-140q4 -24 4 -55v-47h-60v-117q36 3 37 3q3 0 11 -0.5t12 -0.5v-2h-2v-217q0 -37 2.5 -64t11.5 -56.5t24.5 -48.5t43.5 -31t66 -12q64 0 108 24zM1044 1072
q0 36 -24 63.5t-60 27.5t-60.5 -27t-24.5 -64q0 -36 25 -62.5t60 -26.5t59.5 27t24.5 62zM1656 1120v-960q0 -119 -84.5 -203.5t-203.5 -84.5h-960q-119 0 -203.5 84.5t-84.5 203.5v960q0 119 84.5 203.5t203.5 84.5h960q119 0 203.5 -84.5t84.5 -203.5z" />
    <glyph glyph-name="star_empty" unicode="&#xf006;" 
d="M595 22q0 100 -165 100q-158 0 -158 -104q0 -101 172 -101q151 0 151 105zM536 777q0 61 -30 102t-89 41q-124 0 -124 -145q0 -135 124 -135q119 0 119 137zM805 1101v-202q-36 -12 -79 -22q16 -43 16 -84q0 -127 -73 -216.5t-197 -112.5q-40 -8 -59.5 -27t-19.5 -58
q0 -31 22.5 -51.5t58 -32t78.5 -22t86 -25.5t78.5 -37.5t58 -64t22.5 -98.5q0 -304 -363 -304q-69 0 -130 12.5t-116 41t-87.5 82t-32.5 127.5q0 165 182 225v4q-67 41 -67 126q0 109 63 137v4q-72 24 -119.5 108.5t-47.5 165.5q0 139 95 231.5t235 92.5q96 0 178 -47
q98 0 218 47zM1123 220h-222q4 45 4 134v609q0 94 -4 128h222q-4 -33 -4 -124v-613q0 -89 4 -134zM1724 442v-196q-71 -39 -174 -39q-62 0 -107 20t-70 50t-39.5 78t-18.5 92t-4 103v351h2v4q-7 0 -19 1t-18 1q-21 0 -59 -6v190h96v76q0 54 -6 89h227q-6 -41 -6 -165h171
v-190q-15 0 -43.5 2t-42.5 2h-85v-365q0 -131 87 -131q61 0 109 33zM1148 1389q0 -58 -39 -101.5t-96 -43.5q-58 0 -98 43.5t-40 101.5q0 59 39.5 103t98.5 44q58 0 96.5 -44.5t38.5 -102.5z" />
    <glyph glyph-name="user" unicode="&#xf007;" horiz-adv-x="1791" 
d="M1666 640q0 -251 -146.5 -451.5t-378.5 -277.5q-27 -5 -39.5 7t-12.5 30v211q0 97 -52 142q57 6 102.5 18t94 39t81 66.5t53 105t20.5 150.5q0 121 -79 206q37 91 -8 204q-28 9 -81 -11t-92 -44l-38 -24q-93 26 -192 26t-192 -26q-16 11 -42.5 27t-83.5 38.5t-86 13.5
q-44 -113 -7 -204q-79 -85 -79 -206q0 -85 20.5 -150t52.5 -105t80.5 -67t94 -39t102.5 -18q-40 -36 -49 -103q-21 -10 -45 -15t-57 -5t-65.5 21.5t-55.5 62.5q-19 32 -48.5 52t-49.5 24l-20 3q-21 0 -29 -4.5t-5 -11.5t9 -14t13 -12l7 -5q22 -10 43.5 -38t31.5 -51l10 -23
q13 -38 44 -61.5t67 -30t69.5 -7t55.5 3.5l23 4q0 -38 0.5 -89t0.5 -54q0 -18 -13 -30t-40 -7q-232 77 -378.5 277.5t-146.5 451.5q0 209 103 385.5t279.5 279.5t385.5 103t385.5 -103t279.5 -279.5t103 -385.5z" />
    <glyph glyph-name="film" unicode="&#xf008;" 
d="M1551 60q15 6 26 3t11 -17.5t-15 -33.5q-13 -16 -44 -43.5t-95.5 -68t-141 -74t-188 -58t-229.5 -24.5q-119 0 -238 31t-209 76.5t-172.5 104t-132.5 105t-84 87.5q-8 9 -10 16.5t1 12t8 7t11.5 2t11.5 -4.5q192 -117 300 -166q389 -176 799 -90q190 40 391 135z
M1758 175q11 -16 2.5 -69.5t-28.5 -102.5q-34 -83 -85 -124q-17 -14 -26 -9t0 24q21 45 44.5 121.5t6.5 98.5q-5 7 -15.5 11.5t-27 6t-29.5 2.5t-35 0t-31.5 -2t-31 -3t-22.5 -2q-6 -1 -13 -1.5t-11 -1t-8.5 -1t-7 -0.5h-5.5h-4.5t-3 0.5t-2 1.5l-1.5 3q-6 16 47 40t103 30
q46 7 108 1t76 -24zM1364 618q0 -31 13.5 -64t32 -58t37.5 -46t33 -32l13 -11l-227 -224q-40 37 -79 75.5t-58 58.5l-19 20q-11 11 -25 33q-38 -59 -97.5 -102.5t-127.5 -63.5t-140 -23t-137.5 21t-117.5 65.5t-83 113t-31 162.5q0 84 28 154t72 116.5t106.5 83t122.5 57
t130 34.5t119.5 18.5t99.5 6.5v127q0 65 -21 97q-34 53 -121 53q-6 0 -16.5 -1t-40.5 -12t-56 -29.5t-56 -59.5t-48 -96l-294 27q0 60 22 119t67 113t108 95t151.5 65.5t190.5 24.5q100 0 181 -25t129.5 -61.5t81 -83t45 -86t12.5 -73.5v-589zM692 597q0 -86 70 -133
q66 -44 139 -22q84 25 114 123q14 45 14 101v162q-59 -2 -111 -12t-106.5 -33.5t-87 -71t-32.5 -114.5z" />
    <glyph glyph-name="th_large" unicode="&#xf009;" horiz-adv-x="1791" 
d="M1629 890q18 -84 -4 -204q-87 -444 -565 -444h-44q-25 0 -44 -16.5t-24 -42.5l-4 -19l-55 -346l-2 -15q-5 -26 -24.5 -42.5t-44.5 -16.5h-251q-21 0 -33 15t-9 36q9 56 26.5 168t26.5 168t27 167.5t27 167.5q5 37 43 37h131q133 -2 236 21q175 39 287 144q102 95 155 246
q24 70 35 133q1 6 2.5 7.5t3.5 1t6 -3.5q79 -59 98 -162zM1457 1172q0 -107 -46 -236q-80 -233 -302 -315q-113 -40 -252 -42q0 -1 -90 -1l-90 1q-100 0 -118 -96q-2 -8 -85 -530q-1 -10 -12 -10h-295q-22 0 -36.5 16.5t-11.5 38.5l232 1471q5 29 27.5 48t51.5 19h598
q34 0 97.5 -13t111.5 -32q107 -41 163.5 -123t56.5 -196z" />
    <glyph glyph-name="th" unicode="&#xf00a;" 
d="M-30 1112v-613l450 613l11 -8l-249 -340l370 -625h-129l-311 528l-142 -194v-334h-114v973h114zM713.5 217q-91.5 83 -91.5 257t95.5 270t242 96t238 -83t91.5 -257.5t-95 -270t-242 -95.5t-238.5 83zM786.5 735.5q-69.5 -93.5 -69.5 -261.5t63.5 -249t169.5 -81
t175 94.5t69 262t-63.5 248t-169 80.5t-175 -93.5zM1975 139q-95 0 -129 36q-32 31 -32 53v30q-68 -122 -219 -124q-176 0 -198 158q-2 16 -2 34t5.5 38t31.5 46q53 50 232 62q45 3 83 4q36 0 67 -3v231q-2 1 0.5 13t-4.5 31t-20.5 36.5t-45.5 31t-83 13.5t-120 -19
t-100 -37l-7 9q123 57 252 58q143 0 190 -51q36 -40 34 -85v-466q0 -40 17 -62t34 -24l14 -2h43v-11h-43zM1618 144q74 0 133 51q58 51 63 99v168q-37 2 -75.5 2.5t-75.5 -3.5q-106 -12 -138.5 -47t-32.5 -97q0 -11 2 -25q13 -148 124 -148z" />
    <glyph glyph-name="th_list" unicode="&#xf00b;" 
d="M1971 520q70 0 129 -21t96 -55.5t56.5 -77.5t17.5 -87q-1 -31 -15 -57t-32.5 -40.5t-32.5 -22.5t-22 -10t-13 -0.5t-6 7.5q-1 4 2 7t14 10q52 33 59 84q2 16 -1.5 36t-18 44.5t-37.5 45.5t-64.5 38.5t-94.5 23.5q-118 14 -209 -24q16 -43 18 -79q3 -71 -80 -132
q-34 -25 -73 -38q-37 -16 -57 -12q-30 6 -38.5 32t7.5 80q12 32 41.5 72t73.5 76q-32 67 -38 86q-3 11 -6.5 22t-5.5 19t-3.5 16t-2.5 13t-2 9t-1 6v2q-52 -107 -118 -204q-2 -3 -6 -8t-6 -8q23 -54 25 -95q3 -83 -65 -134q-30 -22 -68 -35q-34 -15 -79 -18q-38 -2 -53 8
q-22 16 -9 47q2 5 8.5 13.5t18.5 23.5t21 26t27 32.5t26 30.5q11 13 33 42v0q8 10 20 28q-4 9 -15 31.5t-18 38.5t-11 30q-5 15 -8.5 30t-6 24.5t-4 17.5t-2.5 12v3q-52 -134 -107 -240q-44 -86 -83 -155q-2 -4 -5 -9l-2 -4q-42 -61 -77 -61q-18 0 -30.5 9.5t-18.5 25t-9 34
t-2.5 37.5t1.5 34.5t2 24.5l2 10q-26 -65 -54 -121q-11 -21 -18 -32.5t-18 -25.5t-24 -20t-30 -6q-34 0 -52 17q-30 28 -49 90.5t-15 117.5q6 84 28 143q-40 -21 -79 -45q-7 -4 -21.5 -12.5t-21.5 -12.5l2 -2q19 -37 25 -91t-7.5 -121.5t-49.5 -121.5q-60 -90 -160 -132.5
t-202 -14.5q-25 7 -47.5 38t-29.5 82t22 116q15 33 48.5 68.5t68.5 62t79 54t69.5 41.5t49.5 25q11 6 15 9q-20 18 -55.5 42.5t-70 48.5t-74 52.5t-74.5 59.5t-65.5 65t-52 73.5t-29.5 80.5q-1 13 -1.5 28.5t4.5 37t12 44.5t22 51t33.5 56t47 60.5t62.5 64.5
q98 92 230.5 166t275.5 125q110 39 221.5 48t201.5 -10t154.5 -67t81.5 -117q13 -57 5 -115t-38 -115t-72.5 -106.5t-98.5 -89.5t-117 -64q-86 -33 -171.5 -45.5t-139.5 -9t-90 15.5q-17 6 -33 13.5t-28.5 16t-23 17.5t-18 18t-13 17t-7.5 15q-11 28 0 33q5 3 9.5 0.5
t17.5 -17.5q8 -9 22.5 -18t43 -21t64 -15.5t86.5 0.5q56 6 109 20.5t97.5 35t85 45.5t72 54t57 59.5t42 61.5t25 61t7.5 58t-12 52q-14 30 -52 52t-98.5 31.5t-134 4.5t-166.5 -32t-189 -74q-83 -41 -149.5 -83.5t-110 -77.5t-75.5 -72t-48.5 -63t-27 -54.5t-12.5 -44
t-4 -33.5q-3 -49 18.5 -93.5t61 -83t81 -70.5t92 -72t81.5 -73l2.5 -2.5t1.5 -2.5q51 28 70 38q71 39 144 79q16 23 39 46t48.5 42t53 30.5t49.5 11.5q28 0 45 -15t21.5 -35.5t5 -41.5t-2.5 -36l-3 -15q2 7 4 7l3.5 3q3.5 3 8.5 5.5t13.5 3t19.5 -3.5q6 -2 11 -5.5t7.5 -6.5
t4 -6.5t2 -6.5t0.5 -5t-0.5 -4l-0.5 -2q0 -1 -1.5 -7.5t-4 -16.5t-6.5 -24t-8 -29.5t-8.5 -33t-9 -34.5t-8.5 -35t-7 -32q-2 -11 -3 -22t-1 -18.5t0.5 -14t1.5 -9.5t2 -3q4 0 15 20q4 8 12 23l1 3q17 33 35 73q127 280 142 320q5 14 10.5 37t7.5 28q3 9 27.5 14t57.5 5
q12 0 21 -2t14 -5t8 -6.5t3.5 -5.5t1.5 -4q0 -1 -5.5 -16t-12 -37t-8.5 -38q-1 -10 -1.5 -19t0 -18.5t1 -14.5t2 -16.5t2.5 -16.5q3 -20 30 -74q18 29 38.5 65.5t41 73.5t35 68.5t16.5 45.5q7 36 18 64q3 9 28 14.5t57 5.5q12 0 21.5 -2.5t14.5 -5t8 -6t3.5 -5.5t0.5 -4
q0 -1 -5 -16.5t-11.5 -37.5t-8.5 -38q-1 -10 -2 -19t0 -18t1.5 -14t2 -17t2.5 -16q1 -7 3.5 -15.5t8 -21t8.5 -19t12 -23.5t11 -22q91 44 195 45zM529 34q105 114 64 263q-1 -1 -10 -6q-2 -1 -4 -3q-9 -6 -22 -13.5t-16 -9.5q-89 -56 -146 -108q-36 -34 -55.5 -76.5
t-18 -74.5t21.5 -44q29 -17 85 3t101 69zM980 341q18 44 40 115t15 84q-6 12 -31 2t-49 -37q-17 -19 -39.5 -59t-34.5 -76q-16 -47 -18.5 -96.5t4.5 -79.5t19 -33q8 -2 18 10t21.5 36t20 44.5t19.5 50.5t15 39zM1353 162q84 53 84 117v6q-12 -15 -36 -47l-65 -73l-4 -8
q5 -4 21 5zM1641 228q87 31 87 116q0 14 -6 36q-45 -40 -64 -82q-28 -62 -17 -70z" />
    <glyph glyph-name="ok" unicode="&#xf00c;" 
d="M0 1357.6q0 73.8975 52.2495 126.149t126.149 52.2519h1427.18q73.896 0 126.147 -52.2506q52.2512 -52.2506 52.2512 -126.151v-1434.55q0 -73.8973 -52.2498 -126.149q-52.2498 -52.2516 -126.149 -52.2516h-1427.18q-73.8959 0 -126.147 52.2505
q-52.2512 52.2505 -52.2512 126.15v1434.55zM905.458 764.817h-159.961v234.863h159.961q68.3394 -0.00146484 103.637 -30.4727q35.2954 -29.7305 35.2969 -86.959q-0.00146484 -57.9741 -35.2969 -87.7021q-35.2969 -29.7305 -103.637 -29.7295zM1184.08 678.602
q72.8452 27.498 111.146 83.9863q38.2998 57.2271 38.3008 138.242q-0.00146484 153.85 -105.139 223.715q-104.389 69.8643 -337.946 69.8652h-434.073v-1109.66h479.884q223.794 0 333.44 78.7832q109.642 78.7837 109.645 239.323q-0.00146484 104.796 -51.0674 176.891
q-51.0688 72.0938 -144.19 98.8516zM915.221 279.481h-169.724v290.606h169.724q87.8657 0 131.424 -36.418q43.5557 -35.6763 43.5576 -107.771q-0.00146484 -73.5806 -44.3086 -109.999q-43.5586 -36.4189 -130.673 -36.4189z" />
    <glyph glyph-name="remove" unicode="&#xf00d;" 
d="M1839 385q31 0 53.5 9t34.5 22t19 25q6 12 8 22l2 8h125q-2 -25 -16.5 -56.5t-41 -64t-75.5 -55t-110 -22.5q-70 0 -127.5 26.5t-93.5 72t-55.5 98.5t-19.5 107q0 133 78 217q79 84 202 85q128 0 204 -97q60 -77 62 -226h-409q0 -79 45.5 -125t114.5 -46zM1406 858h127
v-90h-127v-325q0 -46 82 -49v-121h-45q-31 0 -57 6t-51 19.5t-40 41t-15 66.5v362h-86v90h86v54l126 122v-176zM1009 561v11l-10 -4q-41 -13 -103 -25q-1 0 -15 -2.5t-21.5 -4.5l-22.5 -6t-24 -10.5t-19 -15t-15 -21t-5 -27.5q0 -18 8 -33t31 -26.5t57 -11.5q60 0 102 37
q25 23 31 48t6 91zM1142 429q1 -79 21 -140h-144l-3 30l-3 26q-2 -2 -6.5 -7.5t-21 -18t-35.5 -22t-50.5 -17t-66.5 -7.5q-101 0 -150 51t-49 126q0 46 17 80q11 23 27.5 40t32.5 27t45.5 18t49.5 12.5t61 11.5q9 1 14 2q50 9 81.5 17.5t40.5 12.5l6 3v7q0 12 -0.5 18.5
t-3 19.5t-10 21.5t-19 18t-31.5 13.5t-47 4q-35 0 -59 -7t-35.5 -20.5t-15.5 -24.5t-6 -27h-126q8 95 75 141q59 41 173 41q63 0 108 -12.5t69.5 -29.5t39 -43t18 -49t3.5 -51v-265zM1824 768q-28 0 -50.5 -7.5t-37 -19.5t-25 -24.5t-16 -26.5t-8 -21.5t-2.5 -10.5h266
q0 4 -1 13.5t-9 27.5t-20 31.5t-37.5 25.5t-59.5 12zM40 988q-77 2 -121 -32t-46 -75q-1 -22 9.5 -39t23 -27.5t35.5 -20.5t37 -13.5l38 -9.5q90 -22 110 -24q21 -4 34 -7q36 -10 65 -21q9 -3 17 -8q35 -16 59 -40q56 -57 56 -148q0 -55 -19.5 -99t-51 -73t-75.5 -47.5
t-92 -26t-102 -6.5q-73 2 -134 22q-111 34 -179 121q26 25 104 99q72 -120 223 -124q60 -1 103.5 15t63 41.5t19.5 56.5q0 20 -5.5 35.5t-18 26.5t-24.5 19.5t-31.5 14.5t-30.5 9t-29 8l-113 25q-38 11 -59.5 17.5t-52.5 21.5t-50 32q-68 59 -66 150q2 99 84.5 169.5
t220.5 67.5q65 -2 122.5 -20t93.5 -44t54.5 -42.5q17.5 -16.5 27.5 -29.5l-95 -87q-77 110 -205 113zM432 289v745h127v-745h-127z" />
    <glyph glyph-name="zoom_in" unicode="&#xf00e;" 
d="M-48 662q52 -20 84.5 -39.5t52 -53t19.5 -80.5q0 -87 -59 -135q-53 -42 -149 -44q-56 0 -109.5 13.5t-86.5 33.5l21 132q36 -21 84 -35.5t82 -14.5q57 0 55 37q0 12 -8 21t-25.5 18.5t-48.5 20.5q-79 28 -116.5 66t-37.5 106q0 81 56 125q54 45 144 45q96 0 173 -37
l-21 -130q-79 39 -144 39q-45 0 -44 -31q0 -16 18 -29t60 -28zM452 737h-89v-228q0 -31 11.5 -44t36.5 -13q22 0 51 7v-136q-48 -11 -91 -13q-86 0 -129 35q-51 42 -51 138v254h-73l19 121l54 9l22 133l150 24v-157h111zM787 876q14 0 33 -6v-160q-12 2 -31 2q-65 0 -95 -36
v-356h-174v547h153l10 -64q11 34 39 53.5t65 19.5zM951 922q-38 0 -65 27t-27 65q0 25 12 46.5t33 33.5t47 12q37 0 63.5 -27t26.5 -65q0 -18 -7 -35t-19 -30t-29 -20t-35 -7zM862 867h176v-547h-176v547zM1534 819q53 -68 53 -208q0 -158 -72 -237q-59 -64 -156 -64
q-38 0 -78 13v-177l-174 -28v749h152l10 -54q62 65 136 65q83 0 129 -59zM1389 481q24 41 24 122q0 142 -66 142q-33 0 -66 -34v-260q21 -11 47 -11q39 0 61 41zM2086 599q0 -35 -1 -61h-289q4 -53 32 -76q26 -22 74 -22q82 0 150 36l18 -119q-70 -45 -186 -47
q-122 0 -188 63q-73 72 -73 219q0 132 64.5 209t175.5 77q110 0 168 -75q55 -72 55 -204zM1794 646h130q-3 114 -63 113q-59 1 -67 -113z" />
    <glyph glyph-name="uniF00F" unicode="&#xf00f;" 
 />
    <glyph glyph-name="zoom_out" unicode="&#xf010;" 
d="M896 -256q-182 0 -348 71t-286 191t-191 286t-71 348t71 348t191 286t286 191t348 71t348 -71t286 -191t191 -286t71 -348t-71 -348t-191 -286t-286 -191t-348 -71zM896 460.8q74.2273 0 126.714 52.4865t52.4865 126.714t-52.4865 126.714t-126.714 52.4865
t-126.714 -52.4865t-52.4865 -126.714t52.4865 -126.714t126.714 -52.4865z" />
    <glyph glyph-name="off" unicode="&#xf011;" 
d="M4.50781 -87.5332v1462.19h321.717l566.386 -878.633l570.225 878.633h325.581v-1462.19h-325.581v892.912l-570.225 -892.912l-566.386 892.912v-892.912h-321.717z" />
    <glyph glyph-name="uniF012" unicode="&#xf012;" 
d="M1788.34 1142.4q-15.5713 1.75684 -42.8857 4.28027q-27.3135 2.52344 -111.805 6.74512q-84.4912 4.2207 -167.422 4.30176q-82.9316 0.0800781 -197.35 -7.43262t-214.799 -23.7812q-100.382 -16.2686 -206.56 -49.4219t-185.844 -79.6768
q-79.665 -46.5234 -139.437 -119.224t-79.7275 -163.677q-28.6855 -134.502 -26.8789 -235.276q1.80566 -100.774 29.377 -171.073q27.5713 -70.2979 71.457 -116.622t99.3604 -71.9238q55.4736 -25.5996 113.085 -36.9775t112.635 -11.7842
q55.0225 -0.407227 98.0049 3.65625t69.2002 9.34668l26.2168 5.28223q-13.3281 -5.89258 -36.4961 -15.1426q-23.167 -9.25 -93.4756 -30.8926q-70.3086 -21.6436 -137.782 -34.9863q-67.4727 -13.3428 -157.679 -16.9268q-90.207 -3.58301 -165.685 12.0908
q-75.4785 15.6738 -149.281 63.2598q-73.8037 47.5859 -120.986 125.387t-68.2822 209.666t-2.9043 305.603q11.1748 106.427 59.4971 193.016t122.915 144.865t171.331 101.326t205.53 64.8838q108.791 21.833 224.674 32.8867q115.884 11.0527 229.602 7.98535
t219.474 -12.4688q105.757 -9.40234 195.129 -25.8291q89.373 -16.4268 155.73 -34.7412q66.3574 -18.3135 102.061 -36.7236v0zM1678.63 849.828q-7.03906 0.0869141 -19.3643 -0.00390625t-50.3066 -1.93359q-37.9824 -1.84277 -75.0996 -5.4209
q-37.1182 -3.57812 -88.0225 -11.8359q-50.9043 -8.25879 -95.1758 -19.7188q-44.2725 -11.46 -90.4609 -30.5283t-79.9756 -42.8047q-33.7871 -23.7373 -57.6211 -58.0098q-23.835 -34.2734 -29.1172 -74.7725q-7.42969 -59.9336 -2.61328 -103.76
q4.81543 -43.8252 19.9004 -73.1777q15.0859 -29.3525 36.4863 -47.502q21.4014 -18.1504 47.1416 -26.7344q25.7412 -8.58301 51.8672 -10.8711q26.127 -2.28711 50.6641 0.0849609q24.5361 2.37305 43.5293 6.13574t30.4668 7.2793l11.4727 3.5166
q-5.7334 -3.1582 -15.7383 -8.21484q-10.0059 -5.05762 -40.6279 -17.6133q-30.6221 -12.5547 -60.3076 -21.377q-29.6855 -8.82129 -69.9443 -14.4219q-40.2598 -5.59961 -74.6963 -2.17285q-34.4355 3.42676 -69.4023 20.7949q-34.9678 17.3682 -59.2246 49.0576
q-24.2568 31.6885 -39.002 88.0381q-14.7451 56.3486 -13.5713 132.652q1.32031 58.0869 29.4521 105.368q28.1328 47.2812 74.1885 77.8633q46.0557 30.5811 105.312 52.9365t123.432 32.7773q64.1748 10.4229 127.897 15.0508q63.7227 4.62891 119.359 2.0918
t97.1689 -8.43457q41.5322 -5.89844 61.9336 -14.3398v0zM1689.6 999.771q-17.5059 0.213867 -47.7588 -0.208984q-30.2529 -0.421875 -118.249 -6.7793q-87.9971 -6.35645 -168.863 -18.3408q-80.8662 -11.9834 -181.327 -39.2773q-100.461 -27.2949 -175.132 -64.9131
q-74.6709 -37.6191 -130.789 -99.9248q-56.1172 -62.3057 -66.5664 -139.927q-11.4375 -90.8115 -4.21387 -157.272t30.0996 -111.039t55.3848 -72.21q32.5078 -27.6318 71.6377 -40.7852t78.8613 -16.7656q39.7324 -3.6123 77.0557 -0.150391
q37.3242 3.46094 66.2207 9.05957q28.8955 5.59863 46.3535 10.8662l17.458 5.26758q-8.66992 -4.7832 -23.7998 -12.4434t-61.4375 -26.6748q-46.3076 -19.0137 -91.1992 -32.3711t-105.774 -21.8281q-60.8838 -8.47168 -112.962 -3.26562
q-52.0781 5.20703 -104.962 31.5391t-89.5742 74.3633q-36.6895 48.0303 -58.999 133.427t-20.5488 201.025q1.76758 78.3691 35.8125 143.659q34.0449 65.2891 90.9141 110.137t131.675 79.3828t158.639 53.8496q83.834 19.3145 171.227 30.9219
q87.3926 11.6064 170.017 13.2148q82.625 1.6084 154.431 -1.8877t125.047 -11.7676q53.2422 -8.27246 81.3242 -18.8809v0zM1378.74 359.771q-5.64062 -3.06641 -15.5273 -8.02344t-40.417 -17.5898q-30.5312 -12.6328 -60.4385 -21.9717
q-29.9072 -9.33789 -71.0586 -16.4756q-41.1514 -7.13867 -77.1133 -6.10938q-35.9619 1.03027 -73.7676 14.1357q-37.8066 13.1055 -65.8564 39.252t-48.5439 74.2451q-20.4941 48.0977 -26.3633 114.423q109.715 -14.6289 153.6 -14.6289
q5.22461 -61.9473 25.999 -104.102t49.8164 -60.0049q29.041 -17.8516 62.9473 -25.0371q33.9072 -7.18555 66.7695 -1.98145q32.8613 5.2041 59.8125 12.1318q26.9521 6.92871 43.5469 14.332l16.5947 7.4043v0zM1067.89 656q-1.82812 -7.31348 -7.31445 -32.9141
q-5.48535 -25.5996 -7.31445 -32.9141q-36.3467 4.19336 -57.3574 5.2168q-21.0117 1.02246 -37.665 2.97559q-16.6523 1.95312 -62.2344 10.0928q0 3.65723 1.82812 23.7715q1.8291 20.1143 1.8291 23.7715q11.2529 60.0156 54.9395 104.948t105.583 69.3145
q61.8965 24.3828 136.471 38.459q74.5752 14.0762 149.085 15.5771q74.5107 1.50098 141.845 -2.74023q67.334 -4.24023 116.331 -13.082q48.9961 -8.8418 71.0605 -18.6484l-104.125 3.7959q-308.12 0.316406 -434.848 -98.4346q-53.0039 -42.2832 -68.1133 -99.1895v0z
M1236.11 253.714q-8.53125 -4.69238 -23.4873 -12.2773q-14.9561 -7.58594 -61.1592 -26.916q-46.2041 -19.3291 -91.4873 -33.6152q-45.2842 -14.2861 -107.634 -25.2002q-62.3506 -10.9131 -116.892 -9.32422q-54.542 1.58887 -111.969 21.666
q-57.4268 20.0762 -100.156 60.1152q-42.7285 40.0391 -74.1621 113.682t-40.8252 175.185q126.174 -21.9424 234.058 -21.9424q5.86914 -73.9551 26.5117 -129.501q20.6416 -55.5459 50.5957 -86.9365t67.0947 -50.8008q37.1406 -19.4111 76.7832 -23.1846
q39.6426 -3.77441 78.833 -1.85938q39.1914 1.91504 74.0742 10.9492q34.8828 9.0332 61.6768 17.4648t42.4688 15.4639l15.6758 7.03223v0zM764.343 703.543q-11.7012 -40.9551 -21.9424 -102.4q-45.7832 5.87012 -82.1172 9.63672q-36.334 3.76758 -52.623 5.07031
t-41.8916 4.75879t-61.083 9.79199q0 10.666 2.43164 38.2285q2.43262 27.5635 4.88281 34.9141q14.5205 79.2021 67.2852 141.089q52.7646 61.8857 129.173 99.2725t170.884 62.4268q94.4766 25.041 194.145 33.4023q99.668 8.36035 197.113 9.15527
q97.4443 0.793945 181.63 -7.27051q84.1846 -8.06445 145.855 -18.915q61.6699 -10.8516 91.5146 -22.9316q-10.583 0.876953 -29.1572 2.05566t-76.0967 2.52539q-57.5215 1.34766 -114.055 0.0625q-56.5342 -1.28418 -134.671 -7.94824t-146.864 -18.7197
t-141.714 -35.0391q-72.9863 -22.9824 -128.142 -54.1172q-55.1562 -31.1348 -97.2266 -78.7441t-57.3311 -106.304v0zM1024 89.1426q-13.0518 -5.80273 -35.8447 -15.0146t-92.6562 -31.5098t-137.708 -37.1582t-160.081 -22.1787q-92.2354 -7.31836 -171.42 2.99512
t-160.081 48.7969q-80.8955 38.4834 -137.708 104.793q-56.8115 66.3105 -92.6562 181.418t-35.8447 268.888q204.861 -55.873 336.457 -69.4863q-1.17383 -112.107 21.5947 -198.553q22.7686 -86.4463 62.2803 -137.83q39.5117 -51.3828 91.0693 -85.7324
q51.5566 -34.3496 108.814 -45.5127q57.2588 -11.1641 114.607 -13.7041t109.356 6.22852q52.0088 8.76855 92.1523 17.751q40.1436 8.98145 63.9062 17.3955l23.7617 8.41406v0zM398.629 835.2q-40.748 -135.821 -43.8857 -149.943q-80.4023 18.665 -131.644 28.2529
q-51.2422 9.58789 -89.0186 17.8574q-37.7754 8.26953 -119.452 30.6904q1.57031 6.28125 5.32617 29.5908q3.75586 23.3086 7.63281 48.0938t5.32617 32.0293q26.0713 94.709 86.7881 168.781q60.7158 74.0732 143.96 120.714q83.2432 46.6406 186.587 78.0156
q103.343 31.375 215.933 42.8164q112.589 11.4414 230.648 12.8457t232.082 -9.62695q114.023 -11.0312 218.888 -26.8711t192.409 -36.6172q87.5459 -20.7773 151.304 -41.1338q63.7568 -20.3574 96.8301 -38.2949q-15.3867 2.92285 -42.4336 7.51074t-111.083 15.3184
q-84.0361 10.7314 -166.94 17.3398q-82.9043 6.60938 -198.072 8.36621q-115.168 1.75586 -217.206 -6.04785q-102.039 -7.80469 -211.617 -31.457q-109.578 -23.6533 -194.03 -62.3047q-84.4512 -38.6514 -151.718 -104.148q-67.2656 -65.4961 -96.6133 -151.777v0z" />
    <glyph glyph-name="uniF013" unicode="&#xf013;" 
d="M922 884h107q28 -40 68 -98.5t71 -102t68.5 -100.5t71.5 -103q44 63 136 199t140 205h107v-486h-71v417l-285 -417l-55 2l-286 415v-417h-72v486zM1865 706h-62q-9 90 20.5 129.5t104.5 45.5q111 3 290 0q56 -3 83.5 -28.5t34.5 -79.5q3 -35 1 -70q-2 -51 -27.5 -78.5
t-78.5 -31.5q-25 -2 -246 -20q-51 -4 -68 -8q-32 -9 -44 -19.5t-16 -38.5q0 -9 0.5 -28t0.5 -27h479v-54h-535q0 12 -0.5 40t0 49t2.5 39q12 76 97 92q51 10 150.5 16.5t109.5 6.5q40 3 64 10q24 2 32 13q29 16 15 123q-11 45 -69 47q-144 4 -267 0q-64 -2 -70 -75zM307 827
v58h413q63 0 92.5 -29t29.5 -93q1 -44 -2 -79q-11 -81 -90 -95q-22 -2 -110 -2h-83.5h-98.5h-85v-189h-66v246l359 -1q24 0 37.5 1t29 6t22 12.5t13.5 21.5t3.5 34t-3.5 46q-2 24 -8.5 37t-20.5 19t-37 7h-395zM-184 397h-154h-154q-26 0 -40.5 14t-9.5 39q4 37 52 35h558
h59q46 -1 49 -43q0 -44 -49 -45h-311zM-184 587h-154h-154q-26 0 -40.5 14.5t-9.5 39.5q4 36 52 36h558h59q46 -1 49 -46q0 -44 -49 -44h-77h-234zM-184 788h-308q-26 0 -40.5 15t-9.5 39q4 37 52 37h558h59q46 -1 49 -45q0 -13 -6 -23.5t-17 -16.5t-26 -6h-311z" />
    <glyph glyph-name="uniF014" unicode="&#xf014;" 
d="M1617.81 74.6367q-4.46875 -0.394531 -8.59668 -0.0888672q-4.12891 0.305664 -8.83398 2.12598q-4.7041 1.82129 -7.2998 2.68652t-8.0498 4.49902q-5.45312 3.63379 -6.75879 4.46289q-1.30566 0.830078 -7.75195 5.68066q-6.44531 4.85059 -6.97363 5.24219
q-101.273 76.9805 -303.82 231.256q-202.546 154.276 -303.819 231.257q-37.2158 28.3545 -40.3828 30.918q-33.2842 26.1523 -33.2852 53.6338q0 27.4814 33.916 53.6338q44.4912 33.7627 133.775 100.332q89.2852 66.5693 133.763 100.322
q37.0283 27.9922 178.558 135.278q141.53 107.286 218.332 165.07q43.8027 33.5518 81.3975 1.89355q25.1689 -21.7021 23.2676 -51.1094q-1.90137 -29.4082 -30.209 -51.1104q-79.4863 -61.1934 -239.774 -182.355q-34.7041 -26.5537 -79.6621 -61.2314
q-44.958 -34.6787 -89.915 -69.3564q-44.958 -34.6777 -79.6621 -61.2314q-11.6758 -9.15137 -35.0215 -27.1338q-23.3467 -17.9834 -35.0176 -27.1309q-23.3242 -18.0879 -23.5049 -26.1074q-0.179688 -8.01855 22.874 -25.6338q254.918 -194.344 382.377 -290.885
q21.4863 -16.458 83.1191 -63.2139q61.6328 -46.7549 94.8193 -72.4482q41.1357 -31.5693 25.8701 -76.3486q-7.12109 -19.9395 -24.1025 -31.4229q-16.9824 -11.4844 -39.627 -11.4844zM448.592 643.786q-3.20312 29.6201 25.2393 51.7402q32.3379 24.4502 74.2197 56.5518
t83.7637 64.2041q41.8818 32.1016 74.2197 56.5518q23.0947 17.4385 278.896 208.856q13.5615 10.1719 22.084 15.1436q21.8379 12.6865 44.8789 8.20312q23.041 -4.48438 37.7803 -23.9775q15.0488 -19.0898 13.251 -43.6172t-20.8223 -40.3047
q-71.6846 -59.5684 -138.817 -107.268q-21.3154 -14.9658 -86.4443 -65.6221q-32.7969 -25.2285 -98.1045 -76.0234q-65.3066 -50.7939 -98.1328 -76.0439q-23.6494 -17.9736 -23.7402 -26.1074q-0.0917969 -8.13281 23.1094 -25.6338q238.463 -181.896 406.355 -309.184
q42.0635 -30.9932 36.5967 -70.0391q-5.22266 -39.4131 -40.1465 -52.293q-34.9229 -12.8799 -69.0137 12.541q-42.2451 31.5039 -221.477 167.842q-261.971 199.1 -284.574 216.429q-1.84961 1.43262 -5.93359 4.52148q-4.08398 3.08984 -5.94922 4.54492
q-1.86523 1.4541 -5.79004 4.66504t-5.45703 4.88477q-1.53125 1.6748 -4.94922 5.20312q-3.41699 3.5293 -4.26758 5.62012t-3.41309 6.13477q-2.56152 4.04297 -2.38184 6.74707q0.178711 2.7041 -1.17871 7.45996q-1.3584 4.75488 0.199219 8.26953zM1212.08 -253.476
q-22.8105 -0.788086 -46.6934 17.667q-64.8779 50.1416 -291.96 225.22q-227.083 175.077 -350.384 270.735q-27.2715 21.1592 -32.1016 48.0342t13.8027 50.3994q17.6348 22.4004 44.6426 24.1348q27.0068 1.73535 53.1602 -18.4561q214.535 -164.687 642.344 -495.323
q43.9014 -33.627 27.7637 -78.2422q-14.6396 -41.1738 -60.5742 -44.1689zM1216.5 1536q45.9355 -3.99512 59.9443 -41.6455q16.7158 -42.2803 -22.7158 -73.8252q-58.7334 -46.1016 -177.307 -136.924q-57.3018 -44.6846 -131.981 -102.798
q-74.6807 -58.1143 -149.333 -116.207q-74.6533 -58.0928 -131.981 -102.798q-8.83008 -6.62305 -26.498 -20.5049q-17.668 -13.8809 -26.5049 -20.5088q-26.5439 -20.2949 -53.1602 -18.6934q-26.6162 1.60254 -44.6426 24.3721q-19.0508 23.0957 -13.9609 50.1631
q5.09082 27.0674 32.8906 48.2705q318.257 243.065 345.149 263.752q147.727 112.69 295.301 227.155q21.4883 16.6045 44.7998 20.1914zM339.431 426.096q-16.3652 -0.962891 -35.9658 14.5127q-173.157 131.083 -201.916 153.33q-31.707 24.6084 -31.707 51.9766
q0 27.3691 31.707 51.5049q75.6484 59.7988 201.916 153.329q24.7373 18.2803 51.3467 14.9072t43.3008 -26.2646q16.6543 -22.1699 12.541 -47.7188q-4.1123 -25.5479 -27.6846 -44.4053q-57.7441 -45.3711 -106.637 -81.3975q-26.9648 -19.7744 -0.630859 -39.752
q69.0938 -50.6689 111.685 -85.1826q17.8125 -14.5312 22.6367 -34.9414q4.82422 -20.4092 -4.33789 -40.1465q-17.0361 -39.752 -66.2539 -39.752zM1639.89 -185.329q-1.90723 -41.9688 -35.9658 -59.9443q-36.4922 -18.7129 -70.0391 6.94141
q-25.7793 19.7285 -59.1025 45.3516t-66.6748 51.2676q-33.3506 25.6445 -59.1016 45.3525q-128.988 99.9648 -150.806 117.363q-35.3408 27.2617 -23.3467 68.7773q10.3789 39.6289 51.7412 47.3242q28.0918 5.95898 55.5264 -15.1436q217.933 -168.806 328.112 -253.656
q27.6963 -20.3105 29.6562 -53.6338zM1245.53 1139.74q-45.0352 2.00098 -58.0508 42.9062q-13.2559 42.6133 23.3467 71.3018q112.476 86.5205 146.389 112.946q25.0918 19.1416 86.9941 66.5742q61.9033 47.4316 95.3613 72.874q25.6309 19.7725 51.2676 17.4307
t42.749 -25.6338q16.6172 -22.2012 11.6729 -47.166q-4.94336 -24.9648 -29.9717 -44.3271q-54.2969 -41.9854 -162.826 -125.591q-108.53 -83.6055 -162.763 -125.541q-23.5967 -17.9795 -44.1689 -15.7744z" />
    <glyph glyph-name="uniF015" unicode="&#xf015;" 
d="M1618.21 1274.59v0q2.56934 -66.7979 22.6406 -379.274q20.0723 -312.476 38.8594 -591.552l18.7871 -279.077q-0.112305 -3.02148 -0.545898 -8.27148q-0.432617 -5.24902 -3.24512 -20.7031q-2.8125 -15.4531 -7.25586 -29.875q-4.44336 -14.4209 -13.7178 -32.7812
t-21.4121 -32.6279q-12.1387 -14.2676 -31.5596 -26.209t-43.0156 -16.5293l-633.943 -109.832q-3.74512 -0.636719 -10.2061 -1.33301q-6.46094 -0.697266 -25.1758 -0.114258q-18.7139 0.583008 -35.8184 4.24512q-17.1035 3.66113 -38.1631 14.5254t-36.4482 27.7607
q-15.3877 16.8965 -26.4336 46.918q-11.0449 30.0205 -12.0938 69.2139l-46.2451 1463.79q-0.455078 7.25391 -0.141602 19.1592t8.2832 41.4385q7.9707 29.5332 23.7695 50.8877q15.7988 21.3535 52.5254 35.8887q36.7256 14.5352 88.3408 8.06055
q51.6143 -6.47461 132.921 -17.7207q81.3057 -11.2461 160.477 -22.6729q79.1719 -11.4268 150.969 -21.9277q71.7979 -10.502 116.236 -17.124l44.4385 -6.62207q4.93359 -1.21191 13.1553 -4.02344q8.2207 -2.81152 29.4619 -15.3691q21.2402 -12.5566 37.7783 -29.4268
q16.5381 -16.8691 30.8486 -48.5107q14.3115 -31.6426 15.9297 -70.3086zM1476.26 168.557v0q26.8721 4.58789 48.0547 14.0811t33.5596 21.0039t21.0977 24.3643q8.71973 12.8545 12.0664 24.791q3.3457 11.9365 4.97363 21.6113q1.62891 9.67578 1.31445 15.499
l-0.314453 5.82324q-39.8311 636.097 -44.3184 750.842q-0.787109 21.4971 -6.52539 40.1299q-5.73828 18.6318 -14.2861 31.2295q-8.54688 12.5977 -18.7012 22.835t-20.1514 16.1748q-9.99609 5.9375 -18.2295 9.93652q-8.23242 3.99902 -13.3418 5.43359
l-5.10938 1.43457q-345.836 26.3555 -489.428 37.2529q-39.5654 2.87793 -67.748 -8.30273t-40.1436 -29.1924q-11.96 -18.0117 -18.2686 -36.4346t-6.23047 -31.6592l0.078125 -13.2354q3.09375 -78.8623 7.73145 -199.112q4.6377 -120.249 12.7979 -346.622
q8.16016 -226.374 9.0166 -280.897q0.655273 -34.0811 8.7666 -60.542q8.1123 -26.4609 20.5596 -41.5107q12.4473 -15.0488 27.3486 -25.3252t29.6719 -13.7363q14.7695 -3.45996 26.9551 -4.87695t19.7725 -0.613281l7.58789 0.803711zM322.056 358.033v0
q2.11914 -124.973 3.85449 -197.827l-123.963 -12.8457q-2.42969 -0.358398 -6.62109 -0.751953t-16.3301 -0.0800781q-12.1377 0.3125 -23.2305 2.3457q-11.0918 2.03418 -24.7451 8.08789q-13.6523 6.05371 -23.623 15.4805q-9.9707 9.42773 -17.1162 26.1875
q-7.14551 16.7607 -7.80078 38.6514l-16.7002 827.917q-0.303711 4.07031 -0.115234 10.752t5.31738 23.2617q5.12891 16.5791 15.3389 28.5742q10.2109 11.9951 33.9893 20.1787q23.7783 8.18262 57.2295 4.58594q82.1826 -7.90332 129.743 -11.5615
q0.112305 -7.74121 3.21094 -168.923q-63.373 3.39453 -91.2051 5.78027q-25.3574 1.61816 -43.4189 -4.86523q-18.0605 -6.4834 -25.7236 -16.8916q-7.66309 -10.4092 -11.7041 -21.0498q-4.04004 -10.6396 -3.98828 -18.2793l0.0517578 -7.63965
q8.99512 -402.215 10.2773 -472.729q0.71875 -26.9766 10.2451 -45.5664t22.6094 -25.8525q13.082 -7.26172 26.0615 -10.6709q12.9795 -3.4082 21.9922 -2.72949l9.0127 0.678711zM668.252 1028.59v0q4.28223 -92.0742 10.2773 -414.279
q0.768555 -33.4307 3.10156 -84.4219q2.33203 -50.9912 3.88379 -85.1445q1.55078 -34.1523 2.31738 -85.1436q0.767578 -50.9912 -1.5957 -84.4219q-9.8916 -0.989258 -27.915 -3.52148q-18.0244 -2.53125 -30.7627 -4.29199t-30.1523 -2.64258
q-17.415 -0.880859 -29.6709 0.43457q-12.2568 1.31543 -25.4941 5.99902t-21.4434 12.9883q-8.20703 8.30566 -13.6992 22.4678t-5.84277 33.4385q0 17.9844 -0.642578 31.4727l44.3184 3.21094q23.5596 3.59668 40.165 12.4619q16.6045 8.86523 23.4756 18.9473
q6.87012 10.083 10.375 19.6523q3.50488 9.56836 3.28223 15.8643l-0.222656 6.2959q0.637695 370.733 -1.92676 436.76q-0.719727 16.9053 -7.40137 30.666t-15.7041 21.3242t-17.9414 12.7119q-8.91992 5.14844 -15.0879 6.83398l-6.16797 1.68555
q-28.3418 1.93066 -69.3672 3.85352q0 4.93066 -0.918945 20.542q-0.918945 15.6123 -0.931641 25.5137q-0.0136719 9.90137 3.01953 22.3379t9.75 19.6006q10.7051 11.374 34.3604 14.7285q23.6562 3.35352 44.3027 1.25293t49.6729 -6.47168
q29.0273 -4.37109 36.7334 -5.01367q3.85352 -15.4141 3.85352 -25.6914zM704.863 231.501v0q7.05957 -220.035 8.34961 -279.397l-179.842 -23.123q-3.26172 -0.503906 -8.88965 -1.05371q-5.62695 -0.549805 -21.9268 -0.0722656q-16.3008 0.477539 -31.1982 3.40527
q-14.8984 2.92773 -33.2412 11.5908q-18.3438 8.66211 -31.749 22.123q-13.4043 13.4609 -23.0283 37.3643q-9.62305 23.9043 -10.541 55.1016l-22.4805 1174.76q1.37402 0.256836 -0.101562 7.81055t1.80957 19.9111q3.28418 12.3564 6.8877 26.7305
q3.60254 14.374 15.1338 28.2705t26.5498 24.5283q15.0176 10.6328 41.1328 15.5068q26.1143 4.87402 58.8848 1.2041q69.418 -7.93262 168.924 -17.9834q0.427734 -14.7607 3.14941 -96.1064q2.72266 -81.3447 4.55762 -144.112q-26.0186 2.13867 -67.0576 5.37012
q-41.04 3.23145 -53.6934 4.26465q-33.9902 2.33789 -58.1377 -6.79199q-24.1465 -9.12891 -34.3301 -23.8291q-10.1836 -14.6992 -15.5117 -29.7324q-5.32812 -15.0342 -5.19629 -25.833l0.131836 -10.7998q11.5654 -571.196 13.4883 -671.84
q0.719727 -38.127 13.4219 -64.457q12.7012 -26.3301 30.3154 -36.6738q17.6143 -10.3447 35.126 -15.2432t29.6992 -3.99512l12.1885 0.90332zM963.065 1166.04v0q34.9678 -1.99805 175.988 -12.8467q3.52637 -80.3955 21.7148 -483.155q18.1895 -402.759 21.9609 -487.351
q-14.4395 -1.46484 -42.0059 -6.09277q-27.5664 -4.62695 -49.2686 -7.69043q-21.7012 -3.06348 -49.3193 -5.28223q-27.6172 -2.21875 -48.4141 1.45508t-39.8809 12.1768q-19.085 8.50391 -30.3926 27.2295q-11.3086 18.7246 -13.6934 46.2871l85.4248 8.35059
q31.6523 5.21484 54.0791 17.8506q22.4277 12.6357 31.8262 26.9443t14.2754 27.8721q4.87695 13.5625 4.69531 22.4736l-0.181641 8.91016q-23.1309 510.165 -26.9766 603.757q-0.655273 17.5645 -5.5791 32.7969q-4.92383 15.2314 -12.2734 25.5371t-16.085 18.6855
t-17.3398 13.2461t-15.6924 8.14648q-7.08691 3.2793 -11.4863 4.45996l-4.39941 1.17969q-46.3701 4.50586 -109.833 9.63379q-2.59375 48.0029 16.7002 68.7256q19.8994 20.665 66.1562 16.7002z" />
    <glyph glyph-name="uniF016" unicode="&#xf016;" 
d="M1117 -285q0 -25 -71 -42.5t-171 -17.5q-49 0 -94 5t-77.5 12.5t-51.5 19t-19 23.5l-20 306l-59 97q13 -5 38 -13.5t107.5 -21.5t170.5 -13t167.5 12t114.5 25l36 12l-53 -89zM1057 1185q118 -7 190 -22.5t72 -34.5q0 -26 -130 -44t-313 -18q-120 0 -222.5 8.5t-162 22.5
t-59.5 31q0 26 130 44.5t314 18.5q48 0 104 -2l46 187l232 247l58 -50l-219 -231zM1034 1097q19 3 19 12q0 7 -10 10l-3 -6q5 -1 4 -3q0 -4 -43 -5q-46 -1 -46 6q0 1 3 1l-4 7q-7 -3 -7 -9q0 -5 2 -8q8 -7 51 -7zM1316 1573q2 2 1.5 6t-3 9t-7 10.5t-10.5 10.5
q-12 10 -23.5 14t-15.5 -0.5t1.5 -15.5t17.5 -21t23.5 -14t15.5 1zM1106 484q5 -48 77 -17q39 18 62 41l-39 -351q-1 -1 -3 -2.5t-10.5 -6t-18 -9t-26.5 -10t-35.5 -10.5t-45 -10.5t-55.5 -9t-66.5 -5.5t-77.5 -2q-71 0 -131.5 6.5t-96.5 16.5t-62 19.5t-36 16.5l-10 7
l-31 303q14 -7 29 -7.5t26 2.5t25 12t20.5 15.5t18.5 18t15 13.5q0 -5 -6 -24t-12 -37.5t-7 -36t9 -19.5q8 -2 14.5 3.5t12.5 21.5t10.5 30.5t11.5 40.5t11 42q3 10 9 27t9 28t7.5 25.5t5.5 23.5t1.5 18t-2 14t-8.5 7q-12 3 -20.5 -12.5t-15.5 -41t-11 -32.5
q-17 -33 -60 -68q-64 -53 -73 6q-7 44 30 121.5t68 108.5q35 34 62 27q13 -3 26.5 -27t24.5 -24q31 2 15 37q-16 34 -49 51q-11 5 -21 6q-18 1 -35.5 -5t-32.5 -18t-29 -26.5t-26 -33.5t-22 -36.5t-19 -38.5t-15 -36.5t-12 -31.5l-51 488q2 -2 8 -5t36 -11.5t73 -15
t127 -11.5t191 -5q78 0 144 2.5t110 7t79 9.5t54.5 10.5t32.5 10t17 6.5l4 3l-60 -535q-16 -22 -48 -42t-55 -23q-8 -1 -4 5q3 4 19 20q65 65 62 99q0 5 -2 10q-9 24 -33 20.5t-46 -17t-34 -26.5q11 33 -12 34q-7 0 -12.5 -9.5t-8.5 -23t-11 -31t-18 -29.5q-7 -9 -14 -15.5
t-12 -10.5t-12.5 -7.5t-11.5 -5t-13.5 -4.5t-14.5 -5q-15 -5 -1 39q11 36 74 185q6 13 10.5 27t4.5 30t-10 19q-6 2 -14 -6.5t-17 -28t-16.5 -38.5t-19 -48.5t-19.5 -47.5q-11 -26 -18.5 -49t-10 -34t-5 -19t-5.5 -12q-11 -12 -26.5 -17.5t-20.5 -1.5q-13 16 -1 46.5
t25 64.5t4 38q-10 4 -23 -15t-25 -46t-15 -30q-7 -12 -35 -40.5t-40 -19.5q-13 10 20 87q1 2 6 11.5t8 16t5 15t0.5 14.5t-8 8.5t-19.5 -14t-25 -43t-20.5 -54t-6.5 -50t18 -28.5q29 -11 53.5 6t39.5 44q-3 -30 12.5 -41t36.5 -5.5t37 19.5q17 -50 109 18q-3 -11 -9.5 -26.5
t-12.5 -29.5t-13 -29t-12 -28t-8 -24t-2 -18.5t6 -10.5q7 -4 16.5 4.5t19.5 27.5t17 34.5t15.5 37.5t9.5 24q12 29 19.5 44.5t20.5 38t24.5 34.5t28 21.5t34.5 10.5q12 -1 -16 -30q-55 -55 -62 -80q-3 -8 -2 -15z" />
    <glyph glyph-name="uniF017" unicode="&#xf017;" 
 />
    <glyph glyph-name="uniF018" unicode="&#xf018;" 
 />
    <glyph glyph-name="uniF019" unicode="&#xf019;" 
 />
    <glyph glyph-name="uniF01A" unicode="&#xf01a;" 
 />
    <glyph glyph-name="uniF01B" unicode="&#xf01b;" 
 />
    <glyph glyph-name="uniF01C" unicode="&#xf01c;" 
 />
    <glyph glyph-name="expand_alt" unicode="&#xf116;" 
 />
    <glyph glyph-name="collapse_alt" unicode="&#xf117;" 
 />
    <glyph glyph-name="_522" unicode="&#xf22d;" 
 />
    <glyph glyph-name="_523" unicode="&#xf22e;" 
 />
    <glyph glyph-name="_524" unicode="&#xf22f;" 
 />
    <glyph glyph-name="_536" unicode="&#xf23b;" 
 />
    <glyph glyph-name="_537" unicode="&#xf23c;" 
 />
    <glyph glyph-name="_538" unicode="&#xf23d;" 
 />
    <glyph glyph-name="_539" unicode="&#xf23e;" 
 />
    <glyph glyph-name="lessequal" unicode="&#xf500;" 
 />
  </font>
</defs>
</svg>
